<svg width="146" height="27" viewBox="0 0 146 27" fill="none" xmlns="http://www.w3.org/2000/svg">
<path d="M7.5 24.5L1 17.5L7.5 15L12 20L17.5 15L12 7.5V12.5L1 10L5.5 4.5" stroke="white" stroke-width="2" stroke-linecap="round" stroke-linejoin="round"/>
<path d="M28.31 5.6H34.8C36.428 5.6 37.8727 5.92267 39.134 6.568C40.3953 7.21333 41.3707 8.12267 42.06 9.296C42.764 10.4547 43.116 11.7893 43.116 13.3C43.116 14.8107 42.764 16.1527 42.06 17.326C41.3707 18.4847 40.3953 19.3867 39.134 20.032C37.8727 20.6773 36.428 21 34.8 21H28.31V5.6ZM34.668 19.086C35.9147 19.086 37.0073 18.844 37.946 18.36C38.8993 17.876 39.6327 17.2013 40.146 16.336C40.6593 15.456 40.916 14.444 40.916 13.3C40.916 12.156 40.6593 11.1513 40.146 10.286C39.6327 9.406 38.8993 8.724 37.946 8.24C37.0073 7.756 35.9147 7.514 34.668 7.514H30.51V19.086H34.668ZM48.2018 11.298C48.5684 10.6233 49.1111 10.11 49.8298 9.758C50.5484 9.406 51.4211 9.23 52.4478 9.23V11.276C52.3304 11.2613 52.1691 11.254 51.9638 11.254C50.8198 11.254 49.9178 11.5987 49.2578 12.288C48.6124 12.9627 48.2898 13.9307 48.2898 15.192V21H46.1778V9.34H48.2018V11.298ZM65.4814 15.236C65.4814 15.3973 65.4667 15.61 65.4374 15.874H55.9774C56.1094 16.9007 56.5567 17.7293 57.3194 18.36C58.0967 18.976 59.0574 19.284 60.2014 19.284C61.5947 19.284 62.7167 18.8147 63.5674 17.876L64.7334 19.24C64.2054 19.856 63.5454 20.3253 62.7534 20.648C61.9761 20.9707 61.1034 21.132 60.1354 21.132C58.9034 21.132 57.8107 20.8827 56.8574 20.384C55.9041 19.8707 55.1634 19.1593 54.6354 18.25C54.1221 17.3407 53.8654 16.314 53.8654 15.17C53.8654 14.0407 54.1147 13.0213 54.6134 12.112C55.1267 11.2027 55.8234 10.4987 56.7034 10C57.5981 9.48667 58.6027 9.23 59.7174 9.23C60.8321 9.23 61.8221 9.48667 62.6874 10C63.5674 10.4987 64.2494 11.2027 64.7334 12.112C65.2321 13.0213 65.4814 14.0627 65.4814 15.236ZM59.7174 11.012C58.7054 11.012 57.8547 11.32 57.1654 11.936C56.4907 12.552 56.0947 13.3587 55.9774 14.356H63.4574C63.3401 13.3733 62.9367 12.574 62.2474 11.958C61.5727 11.3273 60.7294 11.012 59.7174 11.012ZM72.3378 9.23C73.9512 9.23 75.1832 9.626 76.0338 10.418C76.8992 11.21 77.3318 12.3907 77.3318 13.96V21H75.3298V19.46C74.9778 20.0027 74.4718 20.4207 73.8118 20.714C73.1665 20.9927 72.3965 21.132 71.5018 21.132C70.1965 21.132 69.1478 20.8167 68.3558 20.186C67.5785 19.5553 67.1898 18.7267 67.1898 17.7C67.1898 16.6733 67.5638 15.852 68.3118 15.236C69.0598 14.6053 70.2478 14.29 71.8758 14.29H75.2198V13.872C75.2198 12.9627 74.9558 12.266 74.4278 11.782C73.8998 11.298 73.1225 11.056 72.0958 11.056C71.4065 11.056 70.7318 11.1733 70.0718 11.408C69.4118 11.628 68.8545 11.9287 68.3998 12.31L67.5198 10.726C68.1212 10.242 68.8398 9.87533 69.6758 9.626C70.5118 9.362 71.3992 9.23 72.3378 9.23ZM71.8538 19.504C72.6605 19.504 73.3572 19.328 73.9438 18.976C74.5305 18.6093 74.9558 18.096 75.2198 17.436V15.808H71.9638C70.1745 15.808 69.2798 16.4093 69.2798 17.612C69.2798 18.1987 69.5072 18.6607 69.9618 18.998C70.4165 19.3353 71.0472 19.504 71.8538 19.504ZM95.8263 9.23C97.2929 9.23 98.4516 9.65533 99.3023 10.506C100.168 11.3567 100.6 12.618 100.6 14.29V21H98.4883V14.532C98.4883 13.4027 98.2243 12.552 97.6963 11.98C97.1829 11.408 96.4423 11.122 95.4743 11.122C94.4036 11.122 93.5529 11.4593 92.9223 12.134C92.2916 12.794 91.9763 13.7473 91.9763 14.994V21H89.8643V14.532C89.8643 13.4027 89.6003 12.552 89.0723 11.98C88.5589 11.408 87.8183 11.122 86.8503 11.122C85.7796 11.122 84.9289 11.4593 84.2983 12.134C83.6676 12.794 83.3523 13.7473 83.3523 14.994V21H81.2403V9.34H83.2643V11.078C83.6896 10.4767 84.2469 10.022 84.9363 9.714C85.6256 9.39133 86.4103 9.23 87.2903 9.23C88.1996 9.23 89.0063 9.41333 89.7103 9.78C90.4143 10.1467 90.9569 10.682 91.3383 11.386C91.7783 10.7113 92.3869 10.1833 93.1643 9.802C93.9563 9.42067 94.8436 9.23 95.8263 9.23ZM111.68 21.176C110.14 21.176 108.747 20.8387 107.5 20.164C106.268 19.4747 105.3 18.536 104.596 17.348C103.892 16.1453 103.54 14.796 103.54 13.3C103.54 11.804 103.892 10.462 104.596 9.274C105.3 8.07133 106.276 7.13267 107.522 6.458C108.769 5.76867 110.162 5.424 111.702 5.424C112.905 5.424 114.005 5.62933 115.002 6.04C116 6.436 116.85 7.03 117.554 7.822L116.124 9.208C114.966 7.99067 113.521 7.382 111.79 7.382C110.646 7.382 109.612 7.63867 108.688 8.152C107.764 8.66533 107.038 9.37667 106.51 10.286C105.997 11.1807 105.74 12.1853 105.74 13.3C105.74 14.4147 105.997 15.4267 106.51 16.336C107.038 17.2307 107.764 17.9347 108.688 18.448C109.612 18.9613 110.646 19.218 111.79 19.218C113.506 19.218 114.951 18.602 116.124 17.37L117.554 18.756C116.85 19.548 115.992 20.1493 114.98 20.56C113.983 20.9707 112.883 21.176 111.68 21.176ZM120.385 9.34H122.497V21H120.385V9.34ZM121.441 7.096C121.03 7.096 120.685 6.964 120.407 6.7C120.143 6.436 120.011 6.11333 120.011 5.732C120.011 5.35067 120.143 5.028 120.407 4.764C120.685 4.48533 121.03 4.346 121.441 4.346C121.851 4.346 122.189 4.478 122.453 4.742C122.731 4.99133 122.871 5.30667 122.871 5.688C122.871 6.084 122.731 6.42133 122.453 6.7C122.189 6.964 121.851 7.096 121.441 7.096ZM133.085 20.318C132.777 20.582 132.396 20.7873 131.941 20.934C131.487 21.066 131.017 21.132 130.533 21.132C129.36 21.132 128.451 20.8167 127.805 20.186C127.16 19.5553 126.837 18.6533 126.837 17.48V11.078H124.857V9.34H126.837V6.788H128.949V9.34H132.293V11.078H128.949V17.392C128.949 18.0227 129.103 18.5067 129.411 18.844C129.734 19.1813 130.189 19.35 130.775 19.35C131.421 19.35 131.971 19.1667 132.425 18.8L133.085 20.318ZM145.742 9.34L140.088 22.166C139.589 23.354 139.003 24.19 138.328 24.674C137.668 25.158 136.869 25.4 135.93 25.4C135.358 25.4 134.801 25.3047 134.258 25.114C133.73 24.938 133.29 24.674 132.938 24.322L133.84 22.738C134.441 23.31 135.138 23.596 135.93 23.596C136.443 23.596 136.869 23.4567 137.206 23.178C137.558 22.914 137.873 22.452 138.152 21.792L138.526 20.978L133.378 9.34H135.578L139.648 18.668L143.674 9.34H145.742Z" fill="white"/>
</svg>
