<svg width="49" height="54" viewBox="0 0 49 54" fill="none" xmlns="http://www.w3.org/2000/svg">
<g filter="url(#filter0_d_71_19)">
<path d="M34 20.5359C36.6667 22.0755 36.6667 25.9245 34 27.4641L13 39.5885C10.3333 41.1281 7 39.2036 7 36.1244L7 11.8756C7 8.79644 10.3333 6.87194 13 8.41154L34 20.5359Z" fill="url(#paint0_linear_71_19)"/>
<path d="M33.75 20.9689C36.0833 22.3161 36.0833 25.6839 33.75 27.0311L12.75 39.1554C10.4167 40.5026 7.5 38.8187 7.5 36.1244L7.5 11.8756C7.5 9.18134 10.4167 7.4974 12.75 8.84456L33.75 20.9689Z" stroke="url(#paint1_linear_71_19)" stroke-opacity="0.55"/>
</g>
<defs>
<filter id="filter0_d_71_19" x="1.90735e-06" y="0.869629" width="49" height="52.2607" filterUnits="userSpaceOnUse" color-interpolation-filters="sRGB">
<feFlood flood-opacity="0" result="BackgroundImageFix"/>
<feColorMatrix in="SourceAlpha" type="matrix" values="0 0 0 0 0 0 0 0 0 0 0 0 0 0 0 0 0 0 127 0" result="hardAlpha"/>
<feOffset dx="3" dy="3"/>
<feGaussianBlur stdDeviation="5"/>
<feComposite in2="hardAlpha" operator="out"/>
<feColorMatrix type="matrix" values="0 0 0 0 0 0 0 0 0 0.0645987 0 0 0 0 0.379167 0 0 0 0.42 0"/>
<feBlend mode="normal" in2="BackgroundImageFix" result="effect1_dropShadow_71_19"/>
<feBlend mode="normal" in="SourceGraphic" in2="effect1_dropShadow_71_19" result="shape"/>
</filter>
<linearGradient id="paint0_linear_71_19" x1="7.5" y1="8.5" x2="22" y2="36" gradientUnits="userSpaceOnUse">
<stop stop-color="#A9B8FF"/>
<stop offset="1" stop-color="#556EE6"/>
</linearGradient>
<linearGradient id="paint1_linear_71_19" x1="33.4" y1="49.3" x2="8.1" y2="4.75" gradientUnits="userSpaceOnUse">
<stop stop-color="white" stop-opacity="0"/>
<stop offset="1" stop-color="white"/>
</linearGradient>
</defs>
</svg>
