<svg width="191" height="38" viewBox="0 0 191 38" fill="none" xmlns="http://www.w3.org/2000/svg">
<path d="M49.3175 37.0501C48.7146 36.6938 48.2323 36.3376 47.9911 35.7438C47.6294 35.1501 47.5088 34.5563 47.5088 33.8438C47.5088 33.1313 47.6294 32.5376 47.9911 31.9438C48.3529 31.3501 48.8352 30.9938 49.3175 30.6376C49.9204 30.2813 50.5233 30.1626 51.2468 30.1626C51.8497 30.1626 52.332 30.2813 52.8143 30.4001C53.2967 30.5188 53.6584 30.8751 54.0201 31.2313L53.5378 31.7063C52.9349 31.1126 52.2114 30.8751 51.3674 30.8751C50.7645 30.8751 50.2821 30.9938 49.7998 31.2313C49.3175 31.4688 48.9558 31.8251 48.7146 32.3001C48.4734 32.7751 48.3529 33.2501 48.3529 33.8438C48.3529 34.4376 48.4734 34.9126 48.7146 35.3876C48.9558 35.8626 49.3175 36.2188 49.7998 36.4563C50.2821 36.6938 50.7645 36.8126 51.3674 36.8126C52.2114 36.8126 52.9349 36.5751 53.5378 35.9813L54.0201 36.4563C53.6584 36.8126 53.2967 37.0501 52.8143 37.2876C52.332 37.5251 51.8497 37.5251 51.2468 37.5251C50.5233 37.5251 49.9204 37.4063 49.3175 37.0501Z" fill="#EBE7E5"/>
<path d="M60.6521 37.5251L58.9639 35.1501C58.7228 35.1501 58.6022 35.1501 58.361 35.1501H56.4317V37.4063H55.7083V30.1626H58.4816C59.4463 30.1626 60.1697 30.4001 60.6521 30.8751C61.1344 31.3501 61.4961 31.9438 61.4961 32.6563C61.4961 33.2501 61.3755 33.7251 61.0138 34.0813C60.7726 34.4376 60.2903 34.7938 59.808 34.9126L61.6167 37.4063H60.6521V37.5251ZM60.0492 34.0813C60.4109 33.7251 60.6521 33.3688 60.6521 32.7751C60.6521 32.1813 60.4109 31.7063 60.0492 31.4688C59.6874 30.9938 59.0845 30.8751 58.361 30.8751H56.4317V34.5563H58.361C59.0845 34.5563 59.6874 34.3188 60.0492 34.0813Z" fill="#EBE7E5"/>
<path d="M65.7165 34.9126V37.4063H64.9931V34.9126L62.0991 30.1626H62.9432L65.4754 34.2001L68.0076 30.1626H68.7311L65.7165 34.9126Z" fill="#EBE7E5"/>
<path d="M74.6394 30.8751C75.1217 31.3501 75.4835 31.9438 75.4835 32.6563C75.4835 33.4876 75.2423 34.0813 74.6394 34.4376C74.1571 34.9126 73.313 35.1501 72.4689 35.1501H70.5396V37.4063H69.8162V30.1626H72.5895C73.4336 30.1626 74.1571 30.4001 74.6394 30.8751ZM74.0365 34.0813C74.3982 33.7251 74.6394 33.3688 74.6394 32.7751C74.6394 32.1813 74.3982 31.7063 74.0365 31.4688C73.6747 31.1126 73.0718 30.9938 72.3484 30.9938H70.4191V34.6751H72.3484C73.1924 34.5563 73.6747 34.3188 74.0365 34.0813Z" fill="#EBE7E5"/>
<path d="M78.3774 30.8751H75.7246V30.1626H81.6331V30.8751H78.9803V37.5251H78.3774V30.8751Z" fill="#EBE7E5"/>
<path d="M84.0448 37.0501C83.4419 36.6938 82.9595 36.3376 82.5978 35.7438C82.2361 35.1501 82.1155 34.5563 82.1155 33.8438C82.1155 33.1313 82.2361 32.5376 82.5978 31.9438C82.9595 31.3501 83.4419 30.9938 84.0448 30.6376C84.6477 30.2813 85.2506 30.1626 85.9741 30.1626C86.6976 30.1626 87.421 30.2813 87.9034 30.6376C88.5063 30.9938 88.9886 31.3501 89.2298 31.9438C89.5915 32.5376 89.7121 33.1313 89.7121 33.8438C89.7121 34.5563 89.5915 35.1501 89.2298 35.7438C88.868 36.3376 88.3857 36.6938 87.9034 37.0501C87.3005 37.4063 86.6976 37.5251 85.9741 37.5251C85.2506 37.5251 84.6477 37.4063 84.0448 37.0501ZM87.6622 36.4563C88.1445 36.2188 88.5063 35.8626 88.7474 35.3876C88.9886 34.9126 89.1092 34.4376 89.1092 33.8438C89.1092 33.2501 88.9886 32.7751 88.7474 32.3001C88.5063 31.8251 88.1445 31.4688 87.6622 31.2313C87.1799 30.9938 86.6976 30.8751 86.0947 30.8751C85.4917 30.8751 85.0094 30.9938 84.5271 31.2313C84.0448 31.4688 83.683 31.8251 83.4419 32.3001C83.2007 32.7751 83.0801 33.2501 83.0801 33.8438C83.0801 34.4376 83.2007 34.9126 83.4419 35.3876C83.683 35.8626 84.0448 36.2188 84.5271 36.4563C85.0094 36.6938 85.4917 36.8126 86.0947 36.8126C86.6976 36.8126 87.1799 36.6938 87.6622 36.4563Z" fill="#EBE7E5"/>
<path d="M94.4148 30.1626H95.2589V37.4063H94.5354V30.1626H94.4148Z" fill="#EBE7E5"/>
<path d="M98.1528 37.2876C97.6705 37.1688 97.3088 36.9313 96.947 36.5751L97.3088 35.9813C97.5499 36.2188 97.9117 36.4563 98.394 36.5751C98.8763 36.6938 99.238 36.8126 99.7204 36.8126C100.323 36.8126 100.926 36.6938 101.167 36.4563C101.529 36.2188 101.65 35.8626 101.65 35.5063C101.65 35.2688 101.529 35.0313 101.408 34.7938C101.288 34.6751 101.047 34.4376 100.806 34.4376C100.564 34.3188 100.203 34.2001 99.7204 34.0813C99.1175 33.9626 98.7557 33.8438 98.394 33.7251C98.0322 33.6063 97.7911 33.3688 97.5499 33.1313C97.3088 32.8938 97.1882 32.5376 97.1882 32.0626C97.1882 31.7063 97.3088 31.3501 97.4293 31.1126C97.6705 30.7563 97.9117 30.5188 98.394 30.4001C98.8763 30.2813 99.3586 30.1626 99.9615 30.1626C100.444 30.1626 100.806 30.1626 101.167 30.2813C101.529 30.4001 101.891 30.5188 102.253 30.7563L102.011 31.3501C101.65 31.1126 101.409 30.9938 101.047 30.8751C100.685 30.7563 100.323 30.7563 99.9615 30.7563C99.3586 30.7563 98.8763 30.8751 98.5146 31.1126C98.1528 31.3501 98.0322 31.7063 98.0322 32.0626C98.0322 32.3001 98.1528 32.5376 98.2734 32.7751C98.394 32.8938 98.6351 33.1313 98.9969 33.1313C99.238 33.2501 99.5998 33.3688 100.082 33.4876C100.564 33.6063 101.047 33.7251 101.408 33.8438C101.77 33.9626 102.011 34.2001 102.253 34.4376C102.494 34.6751 102.614 35.0313 102.614 35.5063C102.614 35.8626 102.494 36.2188 102.373 36.4563C102.132 36.8126 101.891 37.0501 101.408 37.1688C101.047 37.2876 100.444 37.4063 99.841 37.4063C99.1175 37.5251 98.6351 37.4063 98.1528 37.2876Z" fill="#EBE7E5"/>
<path d="M107.317 37.2876C106.835 37.1688 106.473 36.9313 106.111 36.5751L106.473 35.9813C106.714 36.2188 107.076 36.4563 107.558 36.5751C108.04 36.6938 108.402 36.8126 108.884 36.8126C109.487 36.8126 110.09 36.6938 110.331 36.4563C110.693 36.2188 110.814 35.8626 110.814 35.5063C110.814 35.2688 110.693 35.0313 110.573 34.7938C110.452 34.6751 110.211 34.4376 109.97 34.4376C109.729 34.3188 109.367 34.2001 108.884 34.0813C108.282 33.9626 107.92 33.8438 107.558 33.7251C107.196 33.6063 106.955 33.3688 106.714 33.1313C106.473 32.8938 106.352 32.5376 106.352 32.0626C106.352 31.7063 106.473 31.3501 106.593 31.1126C106.835 30.7563 107.076 30.5188 107.558 30.4001C108.04 30.2813 108.523 30.1626 109.126 30.1626C109.487 30.1626 109.97 30.1626 110.331 30.2813C110.693 30.4001 111.055 30.5188 111.417 30.7563L111.175 31.3501C110.814 31.1126 110.573 30.9938 110.211 30.8751C109.849 30.7563 109.487 30.7563 109.126 30.7563C108.523 30.7563 108.04 30.8751 107.679 31.1126C107.317 31.3501 107.196 31.7063 107.196 32.0626C107.196 32.3001 107.317 32.5376 107.437 32.7751C107.558 32.8938 107.799 33.1313 108.161 33.1313C108.402 33.2501 108.764 33.3688 109.246 33.4876C109.729 33.6063 110.211 33.7251 110.573 33.8438C110.934 33.9626 111.175 34.2001 111.417 34.4376C111.658 34.6751 111.778 35.0313 111.778 35.5063C111.778 35.8626 111.658 36.2188 111.537 36.4563C111.296 36.8126 111.055 37.0501 110.573 37.1688C110.211 37.2876 109.608 37.4063 109.005 37.4063C108.402 37.5251 107.799 37.4063 107.317 37.2876Z" fill="#EBE7E5"/>
<path d="M113.346 30.1626H114.069V37.4063H113.346V30.1626Z" fill="#EBE7E5"/>
<path d="M124.198 30.1626V37.4063H123.475V31.5876L120.581 36.4563H120.219L117.325 31.5876V37.4063H116.602V30.1626H117.204L120.46 35.5063L123.595 30.1626H124.198Z" fill="#EBE7E5"/>
<path d="M131.554 30.8751C132.036 31.3501 132.398 31.9438 132.398 32.6563C132.398 33.4876 132.157 34.0813 131.554 34.4376C131.071 34.9126 130.227 35.1501 129.383 35.1501H127.454V37.4063H126.61V30.1626H129.383C130.348 30.1626 131.071 30.4001 131.554 30.8751ZM131.071 34.0813C131.433 33.7251 131.674 33.3688 131.674 32.7751C131.674 32.1813 131.433 31.7063 131.071 31.4688C130.71 31.1126 130.107 30.9938 129.383 30.9938H127.454V34.6751H129.383C130.107 34.5563 130.589 34.3188 131.071 34.0813Z" fill="#EBE7E5"/>
<path d="M134.086 30.1626H134.809V36.8126H138.909V37.5251H133.965V30.1626H134.086Z" fill="#EBE7E5"/>
<path d="M145.541 36.8125V37.525H140.356V30.2812H145.42V30.875H141.079V33.4875H144.938V34.2H141.079V36.8125H145.541Z" fill="#EBE7E5"/>
<path d="M93.812 0H99.5999V24.8188H93.812V0Z" fill="#EBE7E5"/>
<path d="M82.1156 0V15.0813L69.5752 0H64.752H63.9079V13.6562C63.9079 15.9125 63.4256 17.575 62.461 18.6437C61.4963 19.7125 60.1699 20.1875 58.3612 20.1875C54.6232 20.1875 52.8145 18.05 52.8145 13.5375V0H47.0266V13.8938C47.0266 17.4562 47.9913 20.3062 50.0411 22.325C51.9704 24.225 54.8644 25.2937 58.4818 25.2937C62.0992 25.2937 64.8726 24.3438 66.9224 22.325C68.8517 20.425 69.937 17.575 69.937 13.8938V8.66875L70.9016 9.7375L83.3214 24.8188H88.1447V0H82.1156Z" fill="#EBE7E5"/>
<path d="M34.8479 0H3.73801C1.68813 0 0 1.6625 0 3.5625V34.3187C0 36.3375 1.68813 38 3.73801 38H34.8479C36.8977 38 38.5859 36.3375 38.5859 34.3187V3.5625C38.5859 1.6625 36.8977 0 34.8479 0ZM35.8125 19H18.9312V35.625H18.0871C18.0871 26.8375 10.8523 19.8313 2.04987 19.8313V19H18.9312V2.375H19.6547C19.6547 11.1625 26.8895 18.1688 35.6919 18.1688V19H35.8125Z" fill="#EBE7E5"/>
<path d="M108.523 23.9875C106.835 23.3938 105.508 22.6812 104.664 21.7312L105.629 19.7125C106.473 20.5438 107.679 21.2563 109.246 21.85C110.693 22.325 112.261 22.6812 113.828 22.6812C115.999 22.6812 117.687 22.325 118.772 21.4937C119.857 20.7812 120.46 19.7125 120.46 18.4062C120.46 17.4562 120.219 16.625 119.616 16.0312C119.013 15.4375 118.29 15.0812 117.446 14.725C116.602 14.4875 115.396 14.1313 113.828 13.775C112.019 13.3 110.452 12.9438 109.367 12.4688C108.281 12.1125 107.317 11.4 106.473 10.5687C105.749 9.7375 105.267 8.55 105.267 7.00625C105.267 5.81875 105.629 4.63125 106.232 3.68125C106.835 2.73125 107.92 1.9 109.246 1.30625C110.573 0.7125 112.261 0 114.311 0C115.758 0 117.084 0.11875 118.531 0.59375C119.978 1.06875 121.063 1.425 122.028 2.1375L121.184 4.15625C120.219 3.5625 119.013 2.96875 117.807 2.6125C116.602 2.25625 115.516 2.1375 114.311 2.1375C112.14 2.1375 110.452 2.49375 109.367 3.325C108.281 4.15625 107.679 5.225 107.679 6.53125C107.679 7.48125 107.92 8.3125 108.523 8.90625C109.126 9.5 109.849 9.975 110.814 10.2125C111.658 10.45 112.984 10.8062 114.431 11.1625C116.24 11.6375 117.687 11.9937 118.893 12.4688C119.978 12.825 120.942 13.5375 121.787 14.3688C122.51 15.2 122.992 16.3875 122.992 17.9312C122.992 19.1187 122.631 20.3062 122.028 21.2563C121.425 22.2062 120.34 23.0375 118.893 23.6313C117.566 24.225 115.758 24.4625 113.708 24.4625C112.019 24.9375 110.211 24.5813 108.523 23.9875Z" fill="#EBE7E5"/>
<path d="M133.362 2.3749H124.56V0.118652H144.697V2.3749H135.894V24.6999H133.242L133.362 2.3749Z" fill="#EBE7E5"/>
<path d="M166.522 22.4437V24.6999H148.917V0.118652H166.04V2.3749H151.57V11.0437H164.472V13.1812H151.57V22.3249H166.522V22.4437Z" fill="#EBE7E5"/>
<path d="M187.985 24.7L179.906 13.8938L171.948 24.7H168.934L178.459 12.1125L169.536 0.237549H172.551L180.027 10.2125L187.503 0.237549H190.276L181.474 12.1125L191 24.8188H187.985V24.7Z" fill="#EBE7E5"/>
</svg>
