<svg width="15" height="15" viewBox="0 0 15 15" fill="none" xmlns="http://www.w3.org/2000/svg">
<path d="M13.7482 2.43512L11.855 0.548462L7.92331 4.47365L9.44752 6.04779C9.19208 6.50124 8.63784 7.36988 7.69327 8.31445C6.74859 9.25916 5.8736 9.81969 5.41581 10.0792L3.87255 8.55561L0.00219727 12.4029L1.88504 14.2983C2.60479 15.0181 3.69992 15.2046 4.61014 14.7625C5.99915 14.0879 8.0954 12.8431 10.1942 10.7443C12.2931 8.64551 13.5378 6.54922 14.2124 5.16021C14.3723 4.83107 14.4499 4.47786 14.4499 4.1269C14.4499 3.50718 14.2077 2.89463 13.7482 2.43512ZM13.1977 4.66731C12.5609 5.97844 11.3845 7.95864 9.39655 9.94657C7.40862 11.9345 5.42842 13.1109 4.11729 13.7477C3.63929 13.9799 3.06281 13.8806 2.68414 13.5019L1.59739 12.4079L3.87537 10.1436L5.19009 11.4415L5.54183 11.2849C5.59899 11.2595 6.95941 10.6438 8.4911 9.11213C10.0238 7.57946 10.6266 6.23053 10.6515 6.17385L10.804 5.82682L9.50671 4.48703L11.8558 2.14177L12.9511 3.23325C13.3306 3.61328 13.4298 4.18951 13.1977 4.66731Z" fill="white"/>
</svg>
