<svg width="210" height="191" viewBox="0 0 210 191" fill="none" xmlns="http://www.w3.org/2000/svg">
<path fill-rule="evenodd" clip-rule="evenodd" d="M75 27.0242L74.7311 34.2782C73.9362 55.7274 56.7256 72.9292 35.276 73.7132L27.4014 74.001L35.276 74.2888C56.7256 75.0728 73.9362 92.2746 74.7311 113.724L75 120.978L75.2688 113.724C76.0638 92.2746 93.2744 75.0728 114.724 74.2888L122.599 74.001L114.724 73.7132C93.2744 72.9292 76.0638 55.7274 75.2688 34.2782L75 27.0242ZM74.0012 7.44695e-09L75.9988 0L77.2665 34.2042C78.0227 54.6071 94.3937 70.9697 114.797 71.7155L150 73.0021V74.9998L114.797 76.2865C94.3937 77.0322 78.0227 93.3949 77.2665 113.798L75.9988 148.002H74.0012L72.7335 113.798C71.9773 93.3949 55.6063 77.0322 35.203 76.2865L1.11704e-08 74.9998L0 73.0021L35.203 71.7155C55.6063 70.9697 71.9773 54.6071 72.7335 34.2042L74.0012 7.44695e-09Z" fill="#83CED8"/>
<path d="M180 131C180.586 147.32 193.68 160.414 210 161C193.68 161.586 180.586 174.68 180 191C179.414 174.68 166.32 161.586 150 161C166.32 160.414 179.414 147.32 180 131Z" fill="#83CED8"/>
</svg>
