<svg width="112" height="111" viewBox="0 0 112 111" fill="none" xmlns="http://www.w3.org/2000/svg">
<path fill-rule="evenodd" clip-rule="evenodd" d="M55.9732 20.8081L55.7762 26.1251C55.1935 41.8469 42.5785 54.4554 26.8565 55.03L21.0846 55.241L26.8565 55.4519C42.5785 56.0266 55.1935 68.6351 55.7762 84.3568L55.9732 89.6739L56.1703 84.3568C56.753 68.6351 69.3679 56.0266 85.09 55.4519L90.8619 55.241L85.0899 55.03C69.3679 54.4554 56.753 41.8469 56.1703 26.1251L55.9732 20.8081ZM55.2411 1L56.7053 1L57.6345 26.0709C58.1888 41.0257 70.1884 53.0191 85.1435 53.5658L110.946 54.5088V55.9731L85.1435 56.9162C70.1884 57.4628 58.1888 69.4563 57.6345 84.4111L56.7053 109.482H55.2411L54.3119 84.4111C53.7577 69.4563 41.7581 57.4628 26.803 56.9162L1 55.9731L1 54.5088L26.803 53.5658C41.7581 53.0191 53.7577 41.0257 54.3119 26.0709L55.2411 1Z" fill="white" stroke="#FF0909" stroke-width="2"/>
</svg>
