<svg width="150" height="151" viewBox="0 0 150 151" fill="none" xmlns="http://www.w3.org/2000/svg">
<g id="star/combo/1" filter="url(#filter0_d_2_53)">
<g id="star/combo/plain1">
<path fill-rule="evenodd" clip-rule="evenodd" d="M80.6694 66.0068L75.2254 32.956L69.7814 66.0068L36.7306 71.4508L69.7814 76.8948L75.2254 109.946L80.6694 76.8948L113.72 71.4508L80.6694 66.0068ZM124.816 71.4508L82.2385 78.4639L75.2254 121.041L68.2123 78.4639L25.6352 71.4508L68.2123 64.4377L75.2254 21.8607L82.2385 64.4377L124.816 71.4508Z" fill="#3E4FE9"/>
<path fill-rule="evenodd" clip-rule="evenodd" d="M85.8538 71.4167L80.4098 38.3658L74.9658 71.4167L41.915 76.8607L74.9658 82.3046L80.4098 115.355L85.8538 82.3046L118.905 76.8607L85.8538 71.4167ZM130 76.8607L87.4229 83.8738L80.4098 126.451L73.3967 83.8738L30.8197 76.8607L73.3967 69.8475L80.4098 27.2705L87.4229 69.8475L130 76.8607Z" fill="#3E4FE9"/>
<path d="M69.5902 16L76.6033 58.5771L119.18 65.5902L76.6033 72.6033L69.5902 115.18L62.5771 72.6033L20 65.5902L62.5771 58.5771L69.5902 16Z" fill="#3E4FE9"/>
</g>
</g>
<defs>
<filter id="filter0_d_2_53" x="0" y="0" width="150" height="150.451" filterUnits="userSpaceOnUse" color-interpolation-filters="sRGB">
<feFlood flood-opacity="0" result="BackgroundImageFix"/>
<feColorMatrix in="SourceAlpha" type="matrix" values="0 0 0 0 0 0 0 0 0 0 0 0 0 0 0 0 0 0 127 0" result="hardAlpha"/>
<feOffset dy="4"/>
<feGaussianBlur stdDeviation="10"/>
<feComposite in2="hardAlpha" operator="out"/>
<feColorMatrix type="matrix" values="0 0 0 0 1 0 0 0 0 0.2625 0 0 0 0 0.48375 0 0 0 0.97 0"/>
<feBlend mode="normal" in2="BackgroundImageFix" result="effect1_dropShadow_2_53"/>
<feBlend mode="normal" in="SourceGraphic" in2="effect1_dropShadow_2_53" result="shape"/>
</filter>
</defs>
</svg>
