<svg width="146" height="191" viewBox="0 0 146 191" fill="none" xmlns="http://www.w3.org/2000/svg">
<path fill-rule="evenodd" clip-rule="evenodd" d="M101 6.67776L99.6973 17.0984C97.1436 37.5273 81.4604 53.8434 61.1518 57.2052C81.4604 60.567 97.1436 76.883 99.6973 97.312L101 107.733L102.303 97.312C104.856 76.883 120.54 60.567 140.848 57.2052C120.54 53.8433 104.856 37.5273 102.303 17.0984L101 6.67776ZM98.0784 16.896L100.191 0L101.809 5.47017e-08L103.922 16.896C106.387 36.6201 121.537 52.3708 141.15 55.6014L146 56.4002L146 58.0101L141.15 58.8089C121.537 62.0395 106.387 77.7902 103.922 97.5143L101.809 114.41H100.191L98.0784 97.5144C95.6127 77.7902 80.463 62.0395 60.8496 58.8089L56 58.0101L56 56.4002L60.8496 55.6014C80.463 52.3708 95.6127 36.6201 98.0784 16.896Z" fill="#8C008E"/>
<path fill-rule="evenodd" clip-rule="evenodd" d="M36 123.915L31.604 150.604L4.9155 155L31.604 159.396L36 186.084L40.396 159.396L67.0846 155L40.396 150.604L36 123.915ZM30.4966 149.496L35.3721 119.896H36.6279L41.5035 149.496L71.1035 154.372V155.628L41.5035 160.503L36.6279 190.103H35.3721L30.4966 160.503L0.896606 155.628V154.372L30.4966 149.496Z" fill="#F98905"/>
</svg>
