<svg width="18" height="18" viewBox="0 0 18 18" fill="none" xmlns="http://www.w3.org/2000/svg">
<path d="M16.875 3.9375H1.125C0.504 3.9375 0 4.4415 0 5.0625V5.70262L9 9.51412L18 5.7015V5.0625C18 4.4415 17.496 3.9375 16.875 3.9375Z" fill="#5F51FF"/>
<path d="M9.21937 10.6424C9.14962 10.6728 9.07425 10.6874 9 10.6874C8.92575 10.6874 8.85038 10.6728 8.78062 10.6424L0 6.92432V15.1874C0 15.8084 0.504 16.3124 1.125 16.3124H16.875C17.496 16.3124 18 15.8084 18 15.1874V6.92432L9.21937 10.6424Z" fill="#5F51FF"/>
<path d="M15.75 1.6875H2.25C1.629 1.6875 1.125 2.1915 1.125 2.8125H16.875C16.875 2.1915 16.371 1.6875 15.75 1.6875Z" fill="#5F51FF"/>
</svg>
