<svg width="79" height="50" viewBox="0 0 79 50" fill="none" xmlns="http://www.w3.org/2000/svg">
<path d="M6.912 45.27C6.036 45.27 5.238 45.126 4.518 44.838C3.798 44.55 3.18 44.13 2.664 43.578C2.148 43.026 1.746 42.348 1.458 41.544C1.182 40.728 1.044 39.798 1.044 38.754C1.044 37.71 1.2 36.786 1.512 35.982C1.836 35.166 2.268 34.482 2.808 33.93C3.348 33.378 3.978 32.958 4.698 32.67C5.418 32.382 6.186 32.238 7.002 32.238C7.518 32.238 7.98 32.274 8.388 32.346C8.808 32.418 9.168 32.502 9.468 32.598C9.78 32.694 10.032 32.79 10.224 32.886C10.416 32.982 10.548 33.054 10.62 33.102L10.116 34.542C10.008 34.47 9.852 34.392 9.648 34.308C9.444 34.224 9.21 34.14 8.946 34.056C8.694 33.972 8.412 33.906 8.1 33.858C7.8 33.798 7.494 33.768 7.182 33.768C6.522 33.768 5.928 33.882 5.4 34.11C4.872 34.338 4.422 34.668 4.05 35.1C3.678 35.532 3.39 36.06 3.186 36.684C2.994 37.296 2.898 37.986 2.898 38.754C2.898 39.498 2.982 40.176 3.15 40.788C3.33 41.4 3.594 41.928 3.942 42.372C4.29 42.804 4.722 43.14 5.238 43.38C5.766 43.62 6.378 43.74 7.074 43.74C7.878 43.74 8.544 43.656 9.072 43.488C9.6 43.32 9.996 43.17 10.26 43.038L10.71 44.478C10.626 44.538 10.476 44.616 10.26 44.712C10.044 44.796 9.774 44.88 9.45 44.964C9.126 45.048 8.748 45.12 8.316 45.18C7.884 45.24 7.416 45.27 6.912 45.27ZM14.0145 38.754C14.0145 37.686 14.1705 36.744 14.4825 35.928C14.8065 35.112 15.2385 34.434 15.7785 33.894C16.3305 33.342 16.9665 32.928 17.6865 32.652C18.4185 32.376 19.1925 32.238 20.0085 32.238C20.8125 32.238 21.5685 32.376 22.2765 32.652C22.9965 32.928 23.6265 33.342 24.1665 33.894C24.7065 34.434 25.1325 35.112 25.4445 35.928C25.7685 36.744 25.9305 37.686 25.9305 38.754C25.9305 39.822 25.7685 40.764 25.4445 41.58C25.1325 42.396 24.7065 43.08 24.1665 43.632C23.6265 44.172 22.9965 44.58 22.2765 44.856C21.5685 45.132 20.8125 45.27 20.0085 45.27C19.1925 45.27 18.4185 45.132 17.6865 44.856C16.9665 44.58 16.3305 44.172 15.7785 43.632C15.2385 43.08 14.8065 42.396 14.4825 41.58C14.1705 40.764 14.0145 39.822 14.0145 38.754ZM15.8505 38.754C15.8505 39.51 15.9465 40.2 16.1385 40.824C16.3305 41.436 16.6005 41.958 16.9485 42.39C17.3085 42.822 17.7405 43.158 18.2445 43.398C18.7605 43.626 19.3365 43.74 19.9725 43.74C20.6085 43.74 21.1785 43.626 21.6825 43.398C22.1865 43.158 22.6125 42.822 22.9605 42.39C23.3205 41.958 23.5965 41.436 23.7885 40.824C23.9805 40.2 24.0765 39.51 24.0765 38.754C24.0765 37.998 23.9805 37.314 23.7885 36.702C23.5965 36.078 23.3205 35.55 22.9605 35.118C22.6125 34.686 22.1865 34.356 21.6825 34.128C21.1785 33.888 20.6085 33.768 19.9725 33.768C19.3365 33.768 18.7605 33.888 18.2445 34.128C17.7405 34.356 17.3085 34.686 16.9485 35.118C16.6005 35.55 16.3305 36.078 16.1385 36.702C15.9465 37.314 15.8505 37.998 15.8505 38.754ZM40.9303 38.754C40.9303 39.834 40.7623 40.776 40.4263 41.58C40.0903 42.372 39.6163 43.032 39.0043 43.56C38.3923 44.076 37.6603 44.466 36.8083 44.73C35.9563 44.982 35.0203 45.108 34.0003 45.108C33.4963 45.108 32.9383 45.084 32.3263 45.036C31.7263 45 31.1803 44.922 30.6883 44.802V32.706C31.1803 32.586 31.7263 32.508 32.3263 32.472C32.9383 32.424 33.4963 32.4 34.0003 32.4C35.0203 32.4 35.9563 32.532 36.8083 32.796C37.6603 33.048 38.3923 33.438 39.0043 33.966C39.6163 34.482 40.0903 35.142 40.4263 35.946C40.7623 36.738 40.9303 37.674 40.9303 38.754ZM34.1443 43.578C35.8003 43.578 37.0363 43.158 37.8523 42.318C38.6683 41.466 39.0763 40.278 39.0763 38.754C39.0763 37.23 38.6683 36.048 37.8523 35.208C37.0363 34.356 35.8003 33.93 34.1443 33.93C33.6523 33.93 33.2683 33.936 32.9923 33.948C32.7283 33.96 32.5423 33.972 32.4343 33.984V43.524C32.5423 43.536 32.7283 43.548 32.9923 43.56C33.2683 43.572 33.6523 43.578 34.1443 43.578ZM45.6803 45V32.526H53.2943V34.02H47.4263V37.728H52.6463V39.186H47.4263V43.506H53.7443V45H45.6803Z" fill="white"/>
<path d="M13.1 14.06C13.1 15.26 12.9133 16.3067 12.54 17.2C12.1667 18.08 11.64 18.8133 10.96 19.4C10.28 19.9733 9.46667 20.4067 8.52 20.7C7.57333 20.98 6.53333 21.12 5.4 21.12C4.84 21.12 4.22 21.0933 3.54 21.04C2.87333 21 2.26667 20.9133 1.72 20.78V7.34C2.26667 7.20667 2.87333 7.12 3.54 7.08C4.22 7.02667 4.84 7 5.4 7C6.53333 7 7.57333 7.14667 8.52 7.44C9.46667 7.72 10.28 8.15333 10.96 8.74C11.64 9.31333 12.1667 10.0467 12.54 10.94C12.9133 11.82 13.1 12.86 13.1 14.06ZM5.56 19.42C7.4 19.42 8.77333 18.9533 9.68 18.02C10.5867 17.0733 11.04 15.7533 11.04 14.06C11.04 12.3667 10.5867 11.0533 9.68 10.12C8.77333 9.17333 7.4 8.7 5.56 8.7C5.01333 8.7 4.58667 8.70667 4.28 8.72C3.98667 8.73333 3.78 8.74667 3.66 8.76V19.36C3.78 19.3733 3.98667 19.3867 4.28 19.4C4.58667 19.4133 5.01333 19.42 5.56 19.42ZM25.1578 15.2C25.3711 15.4667 25.6378 15.82 25.9578 16.26C26.2911 16.6867 26.6311 17.1667 26.9778 17.7C27.3245 18.22 27.6645 18.7667 27.9978 19.34C28.3445 19.9133 28.6378 20.4667 28.8778 21H26.7578C26.4911 20.4933 26.1978 19.98 25.8778 19.46C25.5711 18.94 25.2578 18.4467 24.9378 17.98C24.6178 17.5 24.2978 17.0533 23.9778 16.64C23.6711 16.2267 23.3911 15.8667 23.1378 15.56C22.9645 15.5733 22.7845 15.58 22.5978 15.58C22.4245 15.58 22.2445 15.58 22.0578 15.58H20.3178V21H18.3778V7.34C18.9245 7.20667 19.5311 7.12 20.1978 7.08C20.8778 7.02667 21.4978 7 22.0578 7C24.0045 7 25.4845 7.36667 26.4978 8.1C27.5245 8.83333 28.0378 9.92667 28.0378 11.38C28.0378 12.3 27.7911 13.0867 27.2978 13.74C26.8178 14.3933 26.1045 14.88 25.1578 15.2ZM22.2178 8.7C21.3911 8.7 20.7578 8.72 20.3178 8.76V13.98H21.6978C22.3645 13.98 22.9645 13.9467 23.4978 13.88C24.0311 13.8133 24.4778 13.6867 24.8378 13.5C25.2111 13.3133 25.4978 13.0533 25.6978 12.72C25.8978 12.3733 25.9978 11.92 25.9978 11.36C25.9978 10.84 25.8978 10.4067 25.6978 10.06C25.4978 9.71333 25.2245 9.44 24.8778 9.24C24.5445 9.04 24.1445 8.9 23.6778 8.82C23.2245 8.74 22.7378 8.7 22.2178 8.7ZM33.3559 21V7.14H41.8159V8.8H35.2959V12.92H41.0959V14.54H35.2959V19.34H42.3159V21H33.3559ZM56.7738 21C56.5471 20.4 56.3338 19.8133 56.1338 19.24C55.9338 18.6533 55.7271 18.06 55.5138 17.46H49.2338L47.9738 21H45.9538C46.4871 19.5333 46.9871 18.18 47.4538 16.94C47.9204 15.6867 48.3738 14.5 48.8138 13.38C49.2671 12.26 49.7138 11.1933 50.1538 10.18C50.5938 9.15333 51.0538 8.14 51.5338 7.14H53.3138C53.7938 8.14 54.2538 9.15333 54.6938 10.18C55.1338 11.1933 55.5738 12.26 56.0138 13.38C56.4671 14.5 56.9271 15.6867 57.3938 16.94C57.8604 18.18 58.3604 19.5333 58.8938 21H56.7738ZM54.9538 15.86C54.5271 14.7 54.1004 13.58 53.6738 12.5C53.2604 11.4067 52.8271 10.36 52.3738 9.36C51.9071 10.36 51.4604 11.4067 51.0338 12.5C50.6204 13.58 50.2071 14.7 49.7938 15.86H54.9538ZM69.3955 19.08C69.2621 18.76 69.0821 18.3533 68.8555 17.86C68.6421 17.3667 68.4088 16.8333 68.1555 16.26C67.9021 15.6867 67.6288 15.1 67.3355 14.5C67.0555 13.8867 66.7888 13.3133 66.5355 12.78C66.2821 12.2333 66.0421 11.7467 65.8155 11.32C65.6021 10.8933 65.4288 10.5667 65.2955 10.34C65.1488 11.9133 65.0288 13.62 64.9355 15.46C64.8421 17.2867 64.7621 19.1333 64.6955 21H62.7955C62.8488 19.8 62.9088 18.5933 62.9755 17.38C63.0421 16.1533 63.1155 14.9533 63.1955 13.78C63.2888 12.5933 63.3821 11.44 63.4755 10.32C63.5821 9.2 63.6955 8.14 63.8155 7.14H65.5155C65.8755 7.72667 66.2621 8.42 66.6755 9.22C67.0888 10.02 67.5021 10.86 67.9155 11.74C68.3288 12.6067 68.7288 13.48 69.1155 14.36C69.5021 15.2267 69.8555 16.02 70.1755 16.74C70.4955 16.02 70.8488 15.2267 71.2355 14.36C71.6221 13.48 72.0221 12.6067 72.4355 11.74C72.8488 10.86 73.2621 10.02 73.6755 9.22C74.0888 8.42 74.4755 7.72667 74.8355 7.14H76.5355C76.9888 11.6067 77.3288 16.2267 77.5555 21H75.6555C75.5888 19.1333 75.5088 17.2867 75.4155 15.46C75.3221 13.62 75.2021 11.9133 75.0555 10.34C74.9221 10.5667 74.7421 10.8933 74.5155 11.32C74.3021 11.7467 74.0688 12.2333 73.8155 12.78C73.5621 13.3133 73.2888 13.8867 72.9955 14.5C72.7155 15.1 72.4488 15.6867 72.1955 16.26C71.9421 16.8333 71.7021 17.3667 71.4755 17.86C71.2621 18.3533 71.0888 18.76 70.9555 19.08H69.3955Z" fill="white"/>
</svg>
