<svg width="17" height="17" viewBox="0 0 17 17" fill="none" xmlns="http://www.w3.org/2000/svg">
<path d="M16.6926 4.33225C14.4691 2.22568 11.56 1.06543 8.5 1.06543C5.44 1.06543 2.53087 2.22568 0.300322 4.33936C0.10625 4.53343 0 4.79338 0 5.07105C0 5.35155 0.111928 5.61861 0.300322 5.79638L1.98402 7.47938C2.37147 7.86682 3.07414 7.8555 3.43184 7.49568C3.95884 7.00836 4.53897 6.60461 5.15166 6.29861C5.53134 6.11586 5.66661 5.66678 5.66661 5.30836V3.44829C6.57043 3.20534 7.59681 3.18336 8.49993 3.18336C9.45688 3.18336 10.4578 3.2053 11.3333 3.44616V5.30836C11.3333 5.77868 11.5231 6.15129 11.8376 6.30429C12.4786 6.62446 13.0602 7.02748 13.5645 7.49996C13.7572 7.68202 14.0193 7.78684 14.2835 7.78684C14.5618 7.78684 14.8218 7.67989 15.0159 7.48652L16.6996 5.80282C16.893 5.61014 16.9999 5.3495 16.9999 5.07112C17 4.79338 16.8937 4.53343 16.6926 4.33225Z" fill="#5F51FF"/>
<path d="M8.5 5.30859C6.15612 5.30859 4.25 7.21472 4.25 9.55859C4.25 11.9025 6.15612 13.8086 8.5 13.8086C8.53188 13.8086 8.56375 13.8065 8.6275 13.8015C8.76068 13.798 8.88037 13.7201 8.93775 13.5996C8.99512 13.4792 8.97955 13.3368 8.89807 13.2306C8.63032 12.8835 8.5 12.4932 8.5 12.0377C8.5 11.6602 8.7033 11.3082 9.02982 11.1183C9.35139 10.9313 9.76789 10.9306 10.0909 11.1155C10.3941 11.2897 10.5988 11.3096 10.727 11.3096C10.9416 11.3096 11.1562 11.2437 11.4119 11.1651C11.6733 11.085 11.9538 11.0043 12.2662 10.9844C12.4156 10.9745 12.5431 10.8725 12.5842 10.7287C12.694 10.342 12.75 9.94886 12.75 9.55856C12.75 7.21542 10.8439 5.30859 8.5 5.30859ZM8.5 10.9752C7.7187 10.9752 7.08332 10.3399 7.08332 9.55856C7.08332 8.77726 7.7187 8.14188 8.5 8.14188C9.2813 8.14188 9.91668 8.77726 9.91668 9.55856C9.91668 10.3399 9.2813 10.9752 8.5 10.9752Z" fill="#5F51FF"/>
<path d="M8.49934 10.2667C8.89054 10.2667 9.20766 9.94962 9.20766 9.55842C9.20766 9.16722 8.89054 8.8501 8.49934 8.8501C8.10814 8.8501 7.79102 9.16722 7.79102 9.55842C7.79102 9.94962 8.10814 10.2667 8.49934 10.2667Z" fill="#5F51FF"/>
<path d="M8.49934 10.2667C8.89054 10.2667 9.20766 9.94962 9.20766 9.55842C9.20766 9.16722 8.89054 8.8501 8.49934 8.8501C8.10814 8.8501 7.79102 9.16722 7.79102 9.55842C7.79102 9.94962 8.10814 10.2667 8.49934 10.2667Z" fill="#5F51FF"/>
<path d="M12.3965 11.6836C12.1344 11.6836 11.8851 11.7608 11.6209 11.8423C11.0563 12.0165 10.4103 12.115 9.73881 11.7311C9.629 11.668 9.49443 11.668 9.38536 11.7318C9.27629 11.7948 9.20898 11.9117 9.20898 12.0378C9.20898 13.7101 12.065 13.8036 12.3908 13.8086C12.3922 13.8086 12.3944 13.8086 12.3965 13.8086C12.4893 13.8086 12.5785 13.7718 12.6451 13.7066C12.7124 13.6407 12.7507 13.5493 12.7507 13.4544V12.0377C12.7507 11.8422 12.592 11.6836 12.3965 11.6836Z" fill="#5F51FF"/>
<path d="M15.173 11.1318L14.1651 9.11591C14.158 8.9976 14.1368 8.87648 14.0999 8.73978C14.051 8.55985 13.8725 8.44866 13.687 8.48621C13.5042 8.52376 13.3817 8.69658 13.4072 8.88146C13.4433 9.14001 13.4596 9.35534 13.4596 9.55864C13.4596 10.0793 13.3753 10.5992 13.2103 11.1056C13.1748 11.2126 13.1933 11.3302 13.2584 11.4216C13.3902 11.605 13.4596 11.8182 13.4596 12.0378V13.4545C13.4596 13.7371 13.3442 14.0134 13.143 14.2117C12.9425 14.4086 12.6783 14.517 12.3808 14.517C11.6895 14.5064 11.0159 14.3994 10.4322 14.2082C10.3571 14.1834 10.2756 14.1848 10.1999 14.2117C9.64594 14.4143 9.07504 14.517 8.50129 14.517C5.76711 14.517 3.54297 12.2929 3.54297 9.55871C3.54297 9.3554 3.55927 9.14008 3.5954 8.88083C3.6209 8.69595 3.49834 8.52313 3.31559 8.48558C3.13567 8.44876 2.95222 8.55926 2.90265 8.73915C2.86582 8.87515 2.84384 8.99697 2.83747 9.11528L1.82952 11.1312C1.56034 11.6703 1.41797 12.2723 1.41797 12.8744V15.5802C1.41797 15.7757 1.57665 15.9344 1.77215 15.9344H15.2305C15.426 15.9344 15.5846 15.7757 15.5846 15.5802V12.8744C15.5845 12.2723 15.4422 11.6702 15.173 11.1318Z" fill="#5F51FF"/>
</svg>
