<svg width="30" height="30" viewBox="0 0 30 30" fill="none" xmlns="http://www.w3.org/2000/svg">
<path d="M29.6334 27.8669L21.1023 19.3358C22.7548 17.2946 23.7498 14.7008 23.7498 11.8759C23.7498 5.32844 18.4223 0.000976562 11.8748 0.000976562C5.32741 0.000976562 0 5.32838 0 11.8758C0 18.4233 5.32747 23.7507 11.8749 23.7507C14.6999 23.7507 17.2936 22.7558 19.3348 21.1032L27.866 29.6344C28.1097 29.8782 28.4297 30.0007 28.7497 30.0007C29.0698 30.0007 29.3898 29.8782 29.6335 29.6344C30.1222 29.1457 30.1222 28.3557 29.6334 27.8669ZM11.8749 21.2507C6.70494 21.2507 2.5 17.0458 2.5 11.8758C2.5 6.70585 6.70494 2.50091 11.8749 2.50091C17.0449 2.50091 21.2498 6.70585 21.2498 11.8758C21.2498 17.0458 17.0448 21.2507 11.8749 21.2507Z" fill="white"/>
</svg>
