<svg width="53" height="53" viewBox="0 0 53 53" fill="none" xmlns="http://www.w3.org/2000/svg">
<g id="square-shopping-bag-with-handle-svgrepo-com 1">
<g id="Group">
<path id="Vector" d="M33.1824 15.1558C33.766 15.1558 34.2397 14.6832 34.2397 14.0984C34.2397 13.5137 33.766 13.041 33.1824 13.041H18.6641C18.0805 13.041 17.6068 13.5136 17.6068 14.0984C17.6068 14.6831 18.0805 15.1558 18.6641 15.1558H33.1824Z" fill="#010002"/>
<path id="Vector_2" d="M47.7461 13.0411H40.5435C39.9599 13.0411 39.4861 13.5137 39.4861 14.0985C39.4861 14.6832 39.9599 15.1559 40.5435 15.1559H46.6887V50.8854H6.31118V15.1558H12.1043C12.6879 15.1558 13.1617 14.6832 13.1617 14.0984C13.1617 13.5137 12.6879 13.041 12.1043 13.041H5.25392C4.67027 13.041 4.19653 13.5136 4.19653 14.0984V51.9426C4.19653 52.5273 4.67027 52.9999 5.25392 52.9999H47.7461C48.3298 52.9999 48.8035 52.5274 48.8035 51.9426V14.0984C48.8035 13.5137 48.3308 13.0411 47.7461 13.0411Z" fill="#010002"/>
<path id="Vector_3" d="M36.7583 17.5338C37.3419 17.5338 37.8157 17.0612 37.8157 16.4764V8.76636C37.8155 3.93325 32.5977 0 26.1585 0C19.7447 0 14.5278 3.93325 14.5278 8.76636V16.4765C14.5278 17.0612 15.0016 17.5339 15.5852 17.5339C16.1689 17.5339 16.6426 17.0613 16.6426 16.4765V8.76636C16.6426 5.09847 20.9121 2.11465 26.185 2.11465C31.4315 2.11465 35.701 5.09847 35.701 8.76636V16.4765C35.7009 17.0612 36.1736 17.5338 36.7583 17.5338Z" fill="#010002"/>
<path id="Vector_4" d="M12.8635 19.1948C12.8635 20.6941 14.0848 21.9143 15.5851 21.9143C17.0854 21.9143 18.3067 20.6942 18.3067 19.1948C18.3067 18.6101 17.833 18.1375 17.2493 18.1375C16.6657 18.1375 16.1919 18.61 16.1919 19.1948C16.1919 19.528 15.9202 19.7997 15.585 19.7997C15.2508 19.7997 14.978 19.528 14.978 19.1948C14.978 18.6101 14.5043 18.1375 13.9207 18.1375C13.337 18.1375 12.8635 18.6101 12.8635 19.1948Z" fill="#010002"/>
<path id="Vector_5" d="M36.7583 21.9143C38.2586 21.9143 39.4799 20.6942 39.4799 19.1948C39.4799 18.6101 39.0061 18.1375 38.4225 18.1375C37.8388 18.1375 37.3651 18.61 37.3651 19.1948C37.3651 19.528 37.0934 19.7997 36.7582 19.7997C36.4229 19.7997 36.1512 19.528 36.1512 19.1948C36.1512 18.6101 35.6775 18.1375 35.0938 18.1375C34.5102 18.1375 34.0364 18.61 34.0364 19.1948C34.0367 20.6941 35.2579 21.9143 36.7583 21.9143Z" fill="#010002"/>
</g>
</g>
</svg>
